<svg xmlns="http://www.w3.org/2000/svg" viewBox="0 0 800 1000" role="img" aria-label="Pommeau de douche filtrant ONDÉE">
<defs>
<linearGradient id="c" x1="0" y1="0" x2="1" y2="1"><stop offset="0" stop-color="#fff"/><stop offset=".45" stop-color="#E7F0F2"/><stop offset="1" stop-color="#C4D7DC"/></linearGradient>
<linearGradient id="m" x1="0" y1="0" x2="1" y2="0"><stop offset="0" stop-color="#0E3A45"/><stop offset=".4" stop-color="#1B5A69"/><stop offset="1" stop-color="#0B2C35"/></linearGradient>
<radialGradient id="g" cx=".5" cy=".38" r=".62"><stop offset="0" stop-color="#9FC7D2" stop-opacity=".28"/><stop offset="1" stop-color="#9FC7D2" stop-opacity="0"/></radialGradient>
</defs>
<rect width="800" height="1000" fill="#F6F4EF"/>
<ellipse cx="400" cy="430" rx="330" ry="330" fill="url(#g)"/>
<!-- manche -->
<rect x="352" y="520" width="96" height="330" rx="46" fill="url(#m)"/>
<rect x="368" y="560" width="20" height="250" rx="10" fill="#fff" opacity=".14"/>
<!-- bague filtre visible -->
<rect x="344" y="600" width="112" height="120" rx="14" fill="#0A2731"/>
<rect x="360" y="616" width="80" height="88" rx="8" fill="#F2EBD8"/>
<g fill="#D89B22" opacity=".85">
<circle cx="378" cy="636" r="6"/><circle cx="400" cy="650" r="7"/><circle cx="422" cy="634" r="5"/>
<circle cx="386" cy="666" r="6"/><circle cx="412" cy="676" r="6"/><circle cx="398" cy="694" r="5"/>
</g>
<rect x="360" y="616" width="80" height="88" rx="8" fill="none" stroke="#0A2731" stroke-width="3"/>
<!-- tete -->
<ellipse cx="400" cy="360" rx="210" ry="112" fill="url(#c)"/>
<ellipse cx="400" cy="342" rx="210" ry="112" fill="#fff"/>
<ellipse cx="400" cy="342" rx="210" ry="112" fill="none" stroke="#CFC8BA" stroke-width="2"/>
<ellipse cx="400" cy="352" rx="176" ry="92" fill="#EDE9E0"/>
<g fill="#0E3A45" opacity=".5">
<circle cx="400" cy="352" r="6"/>
<g id="r1"><circle cx="340" cy="352" r="5"/><circle cx="460" cy="352" r="5"/><circle cx="400" cy="320" r="5"/><circle cx="400" cy="384" r="5"/></g>
<circle cx="300" cy="340" r="4.5"/><circle cx="500" cy="340" r="4.5"/><circle cx="300" cy="366" r="4.5"/><circle cx="500" cy="366" r="4.5"/>
<circle cx="356" cy="316" r="4.5"/><circle cx="444" cy="316" r="4.5"/><circle cx="356" cy="390" r="4.5"/><circle cx="444" cy="390" r="4.5"/>
<circle cx="258" cy="352" r="4"/><circle cx="542" cy="352" r="4"/>
<circle cx="330" cy="300" r="4"/><circle cx="470" cy="300" r="4"/><circle cx="330" cy="404" r="4"/><circle cx="470" cy="404" r="4"/>
</g>
<!-- col -->
<path d="M368 452c0 32 8 46 8 68h48c0-22 8-36 8-68z" fill="url(#m)"/>
<!-- eau -->
<g stroke="#9FC7D2" stroke-width="3" stroke-linecap="round" opacity=".55">
<path d="M300 470v70"/><path d="M350 476v92"/><path d="M450 476v92"/><path d="M500 470v70"/><path d="M262 462v46"/><path d="M538 462v46"/>
</g>
<text x="400" y="906" font-family="IBM Plex Mono,monospace" font-size="24" letter-spacing="10" text-anchor="middle" fill="#6E7E83">ONDÉE</text>
</svg>
